# xmcd
#
# Track frame offsets:
#	150
#	11719
#	26449
#	39747
#	51512
#	62166
#	74744
#	85986
#	97716
#	109509
#	120687
#	135310
#	149299
#	161706
#	171167
#	181766
#	194567
#	207086
#	220469
#	233055
#	244601
#	258159
#	268621
#	279271
#	291711
#	302499
#
# Disc length: 4193 seconds
#
# Revision: 0
# Processed by: cddbd v1.5.2PL0 Copyright (c) Steve Scherf et al.
# Submitted via: audiograbber 1.83.01
#
DISCID=80105f1a
DTITLE=Various Artist - Boogiology - The Boogie Woogie Masters - CD2
DYEAR=2009
DGENRE=Boogie Woogie
TTITLE0=Albert Ammons and his Rhythm Kings - Swanee River Boogie (1947)
TTITLE1=Lionel Hampton Orchestra - Hamp's Boogie Woogie (1944)
TTITLE2=Louis Jordan and his Tympany Five - Pinetop's Boogie Woogie (1944)
TTITLE3=Nellie Lutcher and her Rhythm - Lake Charles' Boogie (1948)
TTITLE4=Cecil Gant - Cecil Boogie (1945)
TTITLE5=Sonny Boy Williamson with Blind John Davis - Shake The Boogie (1950)
TTITLE6=Arcibald - Stack-A-Lee (1950)
TTITLE7=Lillte Esther and Mel Walker with Jonny Otis Orchestra - Cupid's Boogie (
TTITLE7=1950)
TTITLE8=Count Basie Orchestra - Red Bank Boogie (1945)
TTITLE9=Sugar Chile Robinson - Numbers Boogie (1949)
TTITLE10=Lionel Hampton's Orchestra - Beulah's Boogie (1946)
TTITLE11=Freddie Mitchell Orchestra - Doby's Boogie (1949)
TTITLE12=5 Red Caps - Boogie Woogie Ball (1944)
TTITLE13=Camille Howard Trio - X-Temporaneous Boogie (1948)
TTITLE14=Mabel Scott - Boogie Woogie Santa Claus (1948)
TTITLE15=Roy Milton's Solid Senders - Milton's Boogie (1946)
TTITLE16=Louis Jordan and his Tympany Five - Boogie Woogie Blue Plate (1947)
TTITLE17=Erskine Hawkins Orchestra - Hawk's Boogie (1947)
TTITLE18=Eddie Vinson Orchestra - Old Maid Boogie (1947)
TTITLE19=Sonny Thompson and Eddie Chamblee - Late Freight (1948)
TTITLE20=Cecil Payne Orchestra - Blockbuster Boogie (1950)
TTITLE21=Joe Liggins and his Honeydrippers - Roll Em' (1948)
TTITLE22=Piano Red - Red' Boogie (1951)
TTITLE23=Johnny Otis Orchestra - Goomp Blues
TTITLE24=Chuck Miller - House Of Blue Lights (1955)
TTITLE25=Joe Turner with Van "Paino Man" Walls - Boogie Woogie Country Girl (19
TTITLE25=56)
EXTD=
EXTT0=
EXTT1=
EXTT2=
EXTT3=
EXTT4=
EXTT5=
EXTT6=
EXTT7=
EXTT8=
EXTT9=
EXTT10=
EXTT11=
EXTT12=
EXTT13=
EXTT14=
EXTT15=
EXTT16=
EXTT17=
EXTT18=
EXTT19=
EXTT20=
EXTT21=
EXTT22=
EXTT23=
EXTT24=
EXTT25=
PLAYORDER=
